<?xml version="1.0" encoding="UTF-8"?>
<svg version="1.1" xmlns="http://www.w3.org/2000/svg" width="448" height="355">
<path d="M0 0 C147.84 0 295.68 0 448 0 C448 117.15 448 234.3 448 355 C300.16 355 152.32 355 0 355 C0 237.85 0 120.7 0 0 Z " fill="#F2F8FA" transform="translate(0,0)"/>
<path d="M0 0 C1.29217984 26.68042079 2.37132164 53.28483652 2 80 C-1.39338057 78.37460299 -4.08182258 76.45131292 -7 74.0625 C-8.66418073 72.70527944 -10.33071797 71.35094139 -12 70 C-12.70125 69.40058594 -13.4025 68.80117187 -14.125 68.18359375 C-14.74375 67.79300781 -15.3625 67.40242188 -16 67 C-19.85697615 68.28565872 -20.0520413 69.46896284 -21.9375 73 C-28.83882495 85.21897744 -37.19432494 96.43049075 -46.40234375 107 C-48.92050548 109.90819279 -51.34158907 112.87569299 -53.75 115.875 C-56.76578964 119.58302605 -59.88825217 123.01064002 -63.32421875 126.328125 C-65.72200075 128.72031776 -67.89261899 131.28716259 -70.06689453 133.88224792 C-72 136 -72 136 -74.06274414 137.66621399 C-77.42323029 140.44354862 -79.65793813 142.63972288 -80.73999023 146.94271851 C-81.02370412 150.53952454 -81.05509956 154.06025525 -81 157.66796875 C-81.00761705 159.03861271 -81.01874512 160.40924094 -81.03309631 161.77983093 C-81.0619864 165.48024486 -81.04207941 169.17894316 -81.0130806 172.87929535 C-80.99112392 176.75377485 -81.01449631 180.62798168 -81.03295898 184.50244141 C-81.06104094 191.82996359 -81.04864798 199.15682984 -81.02153492 206.48433304 C-80.98722858 216.39242047 -81.01580591 226.30031661 -81.04076958 236.20839882 C-81.07841786 251.80593928 -81.03236082 267.40208382 -81 283 C-105.09 283 -129.18 283 -154 283 C-154.33 255.94 -154.66 228.88 -155 201 C-159.29 203.64 -163.58 206.28 -168 209 C-169.89347168 209.83611816 -171.78694336 210.67223633 -173.73779297 211.53369141 C-176.99411257 213.50230895 -177.8419009 214.43624195 -178.88189697 218.14471436 C-179.26020979 222.28635327 -179.28452498 226.30896414 -179.1953125 230.4609375 C-179.20048985 231.80511932 -179.21015569 233.14929152 -179.22436523 234.4934082 C-179.24554144 239.45400418 -179.18010721 244.41466492 -179.125 249.375 C-179.08375 260.47125 -179.0425 271.5675 -179 283 C-202.76 283 -226.52 283 -251 283 C-251 271.45 -251 259.9 -251 248 C-256.445 249.98 -256.445 249.98 -262 252 C-266.64678334 253.1759565 -271.29434133 254.0681864 -276 255 C-276 264.24 -276 273.48 -276 283 C-300.09 283 -324.18 283 -349 283 C-349 277.06 -349 271.12 -349 265 C-351.743125 264.938125 -354.48625 264.87625 -357.3125 264.8125 C-379.59242943 263.88206528 -402.66666087 255.84787442 -418.16015625 239.2734375 C-425.49814739 230.20611087 -429.40285109 221.25431192 -432 210 C-432.17362061 209.35675781 -432.34724121 208.71351563 -432.52612305 208.05078125 C-438.85906869 180.64390675 -423.02340108 149.49096617 -409 127 C-405.85186007 122.19283281 -402.46945001 117.57872994 -399 113 C-398.40703125 112.2059375 -397.8140625 111.411875 -397.203125 110.59375 C-384.01189476 93.25670454 -369.07061572 77.66457934 -353 63 C-352.27603027 62.32791504 -351.55206055 61.65583008 -350.80615234 60.96337891 C-350.10055176 60.32190918 -349.39495117 59.68043945 -348.66796875 59.01953125 C-347.71893677 58.14905151 -347.71893677 58.14905151 -346.75073242 57.26098633 C-345 56 -345 56 -342 56 C-349.11512415 63.27765237 -349.11512415 63.27765237 -353.0625 66.5 C-356.80452717 69.68470397 -359.86440628 73.22790755 -363 77 C-363.58265625 77.69480469 -364.1653125 78.38960938 -364.765625 79.10546875 C-388.5540665 108.14136058 -413.36313576 144.81946841 -410 184 C-407.53039339 197.52670891 -400.54795236 209.00294304 -389.27734375 216.91015625 C-382.17009432 221.32058376 -375.07316953 223.93632589 -367 226 C-366.00355469 226.2990625 -365.00710938 226.598125 -363.98046875 226.90625 C-343.01044139 232.4913621 -319.95391214 228.81972357 -299 225 C-298.08476562 224.8340332 -297.16953125 224.66806641 -296.2265625 224.49707031 C-272.07012464 219.89890338 -248.26934171 210.2177983 -226 200 C-225.09411133 199.58814453 -224.18822266 199.17628906 -223.25488281 198.75195312 C-174.0390524 176.25038748 -124.36418264 143.52197251 -88.83984375 102.1171875 C-86.81301084 99.78482351 -84.71917447 97.52201597 -82.625 95.25 C-70.2958075 81.56250664 -57.71496825 64.79140148 -50 48 C-50.65484375 47.89558594 -51.3096875 47.79117188 -51.984375 47.68359375 C-55.87709536 46.80117657 -59.51734245 45.46224658 -63.25 44.0625 C-64.34828125 43.66514648 -64.34828125 43.66514648 -65.46875 43.25976562 C-70.87965104 41.24069792 -70.87965104 41.24069792 -72 39 C-57.90155654 31.09048738 -43.79315607 23.19968592 -29.65527344 15.36083984 C-24.55170582 12.5310872 -19.4515424 9.69618753 -14.3671875 6.83203125 C-13.52534912 6.35926758 -12.68351074 5.88650391 -11.81616211 5.39941406 C-10.27595484 4.53374897 -8.73757816 3.6648154 -7.20141602 2.79199219 C-2.22388896 0 -2.22388896 0 0 0 Z " fill="#1EAF7C" transform="translate(437,58)"/>
<path d="M0 0 C24.09 0 48.18 0 73 0 C73.32087047 28.00931852 73.32087047 28.00931852 73.390625 39.98632812 C73.4383732 48.1460186 73.49353171 56.30499383 73.60351562 64.46411133 C73.6921859 71.04525689 73.7383298 77.62583339 73.75901794 84.20760155 C73.77375316 86.71340289 73.80252831 89.21916384 73.84584045 91.72463417 C74.23998422 115.47811754 74.23998422 115.47811754 66.98841858 123.19580078 C66.33224045 123.79118652 65.67606232 124.38657227 65 125 C64.08273712 126.05806516 63.17362285 127.12332059 62.27734375 128.19921875 C61.11912109 129.43091797 61.11912109 129.43091797 59.9375 130.6875 C57.12706056 133.70659328 54.3531812 136.72764869 51.6875 139.875 C44.14890478 148.53902531 35.79273432 156.62181891 27 164 C26.03707031 164.82886719 25.07414062 165.65773437 24.08203125 166.51171875 C18.41306548 171.37956018 12.66566988 176.12158179 6.75 180.6875 C5.90852417 181.33875854 5.90852417 181.33875854 5.05004883 182.00317383 C1.12707552 185 1.12707552 185 0 185 C0 123.95 0 62.9 0 0 Z " fill="#0B1A34" transform="translate(283,15)"/>
<path d="M0 0 C23.76 0 47.52 0 72 0 C72.40108809 25.92366043 72.40108809 25.92366043 72.48828125 36.98242188 C72.54804103 44.52602553 72.61869543 52.06841439 72.75439453 59.61108398 C72.86312935 65.69310736 72.92285829 71.7738282 72.94877243 77.85674858 C72.96723647 80.17614693 73.00329503 82.49547467 73.05730057 84.8143177 C73.46359816 102.98382914 73.46359816 102.98382914 69.89247131 107.9032135 C67.30826979 109.75120978 64.97234369 110.90834963 62 112 C61.03860107 112.60368408 60.07720215 113.20736816 59.08666992 113.8293457 C56.45780516 115.33159305 53.82854581 116.83172334 51.1875 118.3125 C50.19484131 118.8708252 49.20218262 119.42915039 48.17944336 120.00439453 C38.33515711 125.47509093 28.25787126 130.35972998 18 135 C16.79633789 135.54624023 16.79633789 135.54624023 15.56835938 136.10351562 C13.32002695 137.11907123 11.06800063 138.12547635 8.8125 139.125 C7.81391968 139.56851807 7.81391968 139.56851807 6.79516602 140.02099609 C2.24418238 142 2.24418238 142 0 142 C0 95.14 0 48.28 0 0 Z " fill="#0B1A36" transform="translate(186,112)"/>
<path d="M0 0 C0 45.54 0 91.08 0 138 C-23.76 138 -47.52 138 -72 138 C-72.96261142 117.67820327 -72.96261142 117.67820327 -73.171875 108.921875 C-73.31468948 102.97450322 -73.48224994 97.03610316 -73.81054688 91.09570312 C-75.58788031 58.08299176 -75.58788031 58.08299176 -69.7300415 50.69006348 C-64.22378041 45.43794483 -58.01782845 42.28658886 -51.04341125 39.39201355 C-46.17730143 37.16632328 -42.0904634 34.0085416 -37.875 30.75 C-36.34556078 29.60739169 -34.81568362 28.46536907 -33.28515625 27.32421875 C-26.9621246 22.47745844 -20.95580086 17.28705175 -15 12 C-13.50074802 10.68664561 -12.00087513 9.37399917 -10.5 8.0625 C-9.90058594 7.5365625 -9.30117188 7.010625 -8.68359375 6.46875 C-1.26861702 0 -1.26861702 0 0 0 Z " fill="#0B1A35" transform="translate(356,203)"/>
<path d="M0 0 C24.09 0 48.18 0 73 0 C73 28.71 73 57.42 73 87 C48.49910333 95.16696556 25.96489527 98 0 98 C0 65.66 0 33.32 0 0 Z " fill="#0B1A36" transform="translate(88,176)"/>
<path d="M0 0 C0 22.44 0 44.88 0 68 C-23.76 68 -47.52 68 -72 68 C-72 56.12 -72 44.24 -72 32 C-68.32875 30.63875 -64.6575 29.2775 -60.875 27.875 C-41.13158767 20.38423308 -21.78963038 11.50922569 -3.32421875 1.2578125 C-1 0 -1 0 0 0 Z " fill="#0B1B34" transform="translate(258,273)"/>
<path d="M0 0 C0 8.91 0 17.82 0 27 C-23.76 27 -47.52 27 -72 27 C-72 21.06 -72 15.12 -72 9 C-70.23398438 8.89042969 -68.46796875 8.78085937 -66.6484375 8.66796875 C-47.68770698 7.43870064 -28.80303568 6.09114693 -10.36254883 1.27001953 C-6.67121628 0.31226333 -3.89850148 0 0 0 Z " fill="#0A1C34" transform="translate(160,314)"/>
<path d="M0 0 C23.76 0 47.52 0 72 0 C72.12032643 26.12420448 72.12032643 26.12420448 72.14648438 37.2265625 C72.16444502 44.81386578 72.18573326 52.40106087 72.22631836 59.98828125 C72.25882136 66.10257785 72.27683389 72.21675849 72.28463173 78.3311348 C72.29019155 80.66843111 72.3010479 83.0057208 72.31719017 85.34296799 C72.33884385 88.60687929 72.34197197 91.87030623 72.34057617 95.13427734 C72.351362 96.10891434 72.36214783 97.08355133 72.3732605 98.08772278 C72.36913651 98.97395828 72.36501251 99.86019379 72.36076355 100.77328491 C72.36352893 101.54574743 72.36629431 102.31820995 72.36914349 103.11408043 C72.24732614 103.73643389 72.12550879 104.35878735 72 105 C71.01 105.66 70.02 106.32 69 107 C68 106 68 106 67.87695217 104.25274563 C67.87787396 103.48673566 67.87879576 102.72072569 67.87974548 101.9315033 C67.87768349 100.61683327 67.87768349 100.61683327 67.87557983 99.27560425 C67.88097275 97.82228195 67.88097275 97.82228195 67.88647461 96.33959961 C67.88632858 95.32508224 67.88618256 94.31056488 67.8860321 93.26530457 C67.88673171 89.89429627 67.89452632 86.52334246 67.90234375 83.15234375 C67.90420776 80.82206757 67.90563174 78.491791 67.90663147 76.16151428 C67.91045798 70.01462735 67.9202894 63.86776387 67.93133545 57.72088623 C67.94334061 50.35292801 67.94795117 42.98496196 67.95378876 35.61699677 C67.96350109 24.41131484 67.98265672 13.20568443 68 2 C46.88 2 25.76 2 4 2 C4.33 47.54 4.66 93.08 5 140 C2.525 140.99 2.525 140.99 0 142 C0 95.14 0 48.28 0 0 Z " fill="#051129" transform="translate(186,112)"/>
<path d="M0 0 C24.09 0 48.18 0 73 0 C73.16065467 28.24844677 73.16065467 28.24844677 73.20101547 42.20211983 C73.22318083 49.74861847 73.25132067 57.29494026 73.30175781 64.84130859 C73.34593924 71.4548641 73.36913508 78.06827846 73.37950897 84.68198776 C73.38690231 87.20578398 73.40133962 89.72956967 73.42292023 92.25328445 C73.45193766 95.78708829 73.45595653 99.32010019 73.45410156 102.85400391 C73.46848267 103.89841644 73.48286377 104.94282898 73.49768066 106.01889038 C73.463693 111.99885113 72.93176345 115.40665403 69 120 C68.0282758 117.0848274 67.88799412 115.3010431 67.91770935 112.27339172 C67.92474884 111.30164001 67.93178833 110.32988831 67.93904114 109.32868958 C67.95198715 108.26414047 67.96493317 107.19959137 67.97827148 106.1027832 C67.98787903 104.98068451 67.99748657 103.85858582 68.00738525 102.70248413 C68.04042571 98.98518701 68.080739 95.26800557 68.12109375 91.55078125 C68.14538992 88.9767447 68.16923373 86.40270384 68.19264221 83.82865906 C68.24910137 77.74071134 68.31013063 71.65282507 68.37336355 65.56494445 C68.45213535 57.95414772 68.52393586 50.34328732 68.59570312 42.73242188 C68.72376452 29.1548749 68.86238345 15.57746096 69 2 C35.34 1.505 35.34 1.505 1 1 C1 61.72 1 122.44 1 185 C0.67 185 0.34 185 0 185 C0 123.95 0 62.9 0 0 Z " fill="#29374B" transform="translate(283,15)"/>
<path d="M0 0 C24.09 0 48.18 0 73 0 C73 28.71 73 57.42 73 87 C72.67 87 72.34 87 72 87 C72 58.62 72 30.24 72 1 C71.34 1.33 70.68 1.66 70 2 C67.96769104 2.09152672 65.93231422 2.11751434 63.89794922 2.11352539 C62.61677216 2.11344986 61.33559509 2.11337433 60.01559448 2.11329651 C58.61195843 2.10818948 57.20832277 2.10297348 55.8046875 2.09765625 C54.37265065 2.09579146 52.94061316 2.09436784 51.50857544 2.09336853 C47.73726646 2.08954819 43.96599593 2.07972202 40.19470215 2.06866455 C35.67094212 2.05664277 31.14716925 2.05204589 26.62339783 2.04621124 C19.74890514 2.03651001 12.87449682 2.0173501 6 2 C6 16.52 6 31.04 6 46 C5.67 46 5.34 46 5 46 C4.67 62.5 4.34 79 4 96 C9.61 96.33 15.22 96.66 21 97 C21 97.33 21 97.66 21 98 C14.07 98 7.14 98 0 98 C0 65.66 0 33.32 0 0 Z " fill="#112136" transform="translate(88,176)"/>
<path d="M0 0 C0 45.54 0 91.08 0 138 C-23.76 138 -47.52 138 -72 138 C-72 137.67 -72 137.34 -72 137 C-49.56 136.67 -27.12 136.34 -4 136 C-4 92.77 -4 49.54 -4 5 C-4.99 4.505 -4.99 4.505 -6 4 C-1.125 0 -1.125 0 0 0 Z " fill="#13233B" transform="translate(356,203)"/>
<path d="M0 0 C1.27770879 2.55541759 1.10709936 4.31454031 1.08229065 7.17581177 C1.07525116 8.27240112 1.06821167 9.36899048 1.06095886 10.49880981 C1.04801285 11.70721527 1.03506683 12.91562073 1.02172852 14.16064453 C1.01212097 15.42890076 1.00251343 16.69715698 0.99261475 18.00384521 C0.96611221 21.48713626 0.93333716 24.97034376 0.89946485 28.45356989 C0.86514309 32.09172813 0.83654979 35.72993118 0.80735779 39.36813354 C0.75118373 46.26005329 0.68983221 53.1519169 0.62663645 60.04377544 C0.55495084 67.88886327 0.48901287 75.73399607 0.42356598 83.57913804 C0.28878843 99.71948423 0.14676596 115.85975828 0 132 C0.99 132.33 1.98 132.66 3 133 C-20.43 133 -43.86 133 -68 133 C-68 105.94 -68 78.88 -68 51 C-67.67 51 -67.34 51 -67 51 C-67 77.73 -67 104.46 -67 132 C-45.55 132 -24.1 132 -2 132 C-2.10699219 122.72261719 -2.21398437 113.44523437 -2.32421875 103.88671875 C-2.38512664 98.02149474 -2.44527167 92.15627948 -2.50195312 86.29101562 C-2.59213242 76.97424553 -2.68549194 67.65758258 -2.79907227 58.34106445 C-2.88176885 51.55663559 -2.95388863 44.77219151 -3.01323253 37.9875167 C-3.04503537 34.39402147 -3.08218462 30.80075872 -3.13199425 27.20746422 C-3.18735897 23.19914117 -3.21911094 19.19096862 -3.2487793 15.18237305 C-3.27898415 13.38918388 -3.27898415 13.38918388 -3.30979919 11.55976868 C-3.31408936 10.47021881 -3.31837952 9.38066895 -3.32279968 8.25810242 C-3.33293941 7.30957744 -3.34307913 6.36105246 -3.35352612 5.38378429 C-2.93928198 2.59058566 -2.17827844 1.72423559 0 0 Z " fill="#020E24" transform="translate(352,207)"/>
<path d="M0 0 C23.76 0 47.52 0 72 0 C72 28.71 72 57.42 72 87 C71.67 87 71.34 87 71 87 C71 58.62 71 30.24 71 1 C70.34 1.33 69.68 1.66 69 2 C66.96769104 2.09152672 64.93231422 2.11751434 62.89794922 2.11352539 C61.61677216 2.11344986 60.33559509 2.11337433 59.01559448 2.11329651 C57.61195843 2.10818948 56.20832277 2.10297348 54.8046875 2.09765625 C53.37265065 2.09579146 51.94061316 2.09436784 50.50857544 2.09336853 C46.73726646 2.08954819 42.96599593 2.07972202 39.19470215 2.06866455 C34.67094212 2.05664277 30.14716925 2.05204589 25.62339783 2.04621124 C18.74890514 2.03651001 11.87449682 2.0173501 5 2 C5 16.52 5 31.04 5 46 C4.67 46 4.34 46 4 46 C2.80463539 41.31367437 2.87240164 36.77970671 2.90234375 31.98046875 C2.9037587 31.12189774 2.90517365 30.26332672 2.90663147 29.3787384 C2.91220943 26.64828951 2.92475786 23.91792393 2.9375 21.1875 C2.94251785 19.3313814 2.94708026 17.4752615 2.95117188 15.61914062 C2.96217164 11.0793952 2.97942107 6.5397117 3 2 C2.01 2 1.02 2 0 2 C0 1.34 0 0.68 0 0 Z " fill="#1B283C" transform="translate(89,176)"/>
<path d="M0 0 C0.33 0 0.66 0 1 0 C1 8.91 1 17.82 1 27 C-7.83155331 27.04513334 -16.66303037 27.08184823 -25.49467278 27.10362434 C-29.59528757 27.11407426 -33.69581958 27.12825537 -37.79638672 27.15087891 C-41.75155581 27.1725644 -45.70664511 27.18455952 -49.66186905 27.18975449 C-51.17299786 27.19345799 -52.68412217 27.20068975 -54.19521713 27.21146011 C-56.30716232 27.22591823 -58.41877524 27.22798037 -60.53076172 27.22705078 C-61.73433319 27.231492 -62.93790466 27.23593323 -64.177948 27.24050903 C-67 27 -67 27 -69 25 C-66.18784488 23.59392244 -63.8595578 23.88049514 -60.71435547 23.88647461 C-60.07032776 23.88632858 -59.42630005 23.88618256 -58.76275635 23.8860321 C-56.63086598 23.8867296 -54.49906263 23.89451434 -52.3671875 23.90234375 C-50.89031014 23.90420851 -49.41343216 23.90563214 -47.93655396 23.90663147 C-44.04687801 23.91045208 -40.15723933 23.92027848 -36.26757812 23.93133545 C-32.29948429 23.94155936 -28.33138445 23.94613119 -24.36328125 23.95117188 C-16.57550384 23.96190115 -8.78775714 23.97897211 -1 24 C-1.01160156 22.77023437 -1.02320313 21.54046875 -1.03515625 20.2734375 C-1.04454022 18.64062653 -1.05363977 17.0078139 -1.0625 15.375 C-1.07087891 14.56675781 -1.07925781 13.75851562 -1.08789062 12.92578125 C-1.1058955 8.49658082 -0.89622662 4.36116576 0 0 Z " fill="#09162A" transform="translate(159,314)"/>
<path d="M0 0 C0.66 0.33 1.32 0.66 2 1 C-5.11512415 8.27765237 -5.11512415 8.27765237 -9.0625 11.5 C-12.80452717 14.68470397 -15.86440628 18.22790755 -19 22 C-19.58265625 22.69480469 -20.1653125 23.38960937 -20.765625 24.10546875 C-26.02146233 30.52068196 -30.82936926 37.24506741 -35.60791016 44.01904297 C-36.14722168 44.77717285 -36.6865332 45.53530273 -37.2421875 46.31640625 C-37.96704346 47.34423218 -37.96704346 47.34423218 -38.70654297 48.39282227 C-40 50 -40 50 -42 51 C-42 50.01 -42 49.02 -42 48 C-41.34 48 -40.68 48 -40 48 C-40 46.68 -40 45.36 -40 44 C-39.505 43.505 -39.505 43.505 -39 43 C-39.33 42.34 -39.66 41.68 -40 41 C-32.42280483 25.87138244 -15.12133397 13.25445234 -2.55541992 2.35864258 C-1.68239183 1.59606192 -0.8196668 0.8196668 0 0 Z " fill="#3AAA81" transform="translate(93,113)"/>
<path d="M0 0 C0.33 0.99 0.66 1.98 1 3 C-0.18109747 4.38050354 -1.37029507 5.75407744 -2.5625 7.125 C-3.22378906 7.89070312 -3.88507813 8.65640625 -4.56640625 9.4453125 C-7 12 -7 12 -8.73774052 13.09267616 C-11.98166361 15.24371991 -13.73601202 16.8875737 -14.65215874 20.74814987 C-14.90365903 24.29808088 -14.93083498 27.79037741 -14.88647461 31.34912109 C-14.89436929 32.70961536 -14.90533437 34.07009475 -14.91912842 35.43054199 C-14.94779935 39.11231255 -14.9336494 42.79280847 -14.91168666 46.47457838 C-14.89603235 50.32638195 -14.91992822 54.17793758 -14.93959045 58.0296936 C-14.97080705 65.31824709 -14.96656462 72.60632939 -14.94951588 79.89491236 C-14.93183289 88.19486897 -14.95378089 96.49457366 -14.97902286 104.79449344 C-15.03004638 121.86309734 -15.03141501 138.93135283 -15 156 C-15.33 156 -15.66 156 -16 156 C-16.3280291 138.11896649 -16.57439368 120.23872071 -16.72537041 102.35532188 C-16.79735752 94.05030717 -16.89536778 85.7471689 -17.05615234 77.44335938 C-17.19633924 70.19983267 -17.28616249 62.95766534 -17.31723893 55.7128197 C-17.33538934 51.88098408 -17.37756433 48.05303461 -17.48022079 44.22245407 C-18.16132366 17.81805568 -18.16132366 17.81805568 -10.99312019 9.98990822 C-8.15106941 7.38836677 -5.16037154 5.20399985 -2 3 C-1.34 2.01 -0.68 1.02 0 0 Z " fill="#D5E0E8" transform="translate(372,185)"/>
<path d="M0 0 C0.66 0 1.32 0 2 0 C2 28.38 2 56.76 2 86 C1.01 85.67 0.02 85.34 -1 85 C-0.505 84.01 -0.505 84.01 0 83 C-2.31 83 -4.62 83 -7 83 C-7 82.67 -7 82.34 -7 82 C-4.69 82 -2.38 82 0 82 C0 54.94 0 27.88 0 0 Z " fill="#030B21" transform="translate(158,177)"/>
<path d="M0 0 C0.66 0 1.32 0 2 0 C2 11.22 2 22.44 2 34 C22.79 34 43.58 34 65 34 C65 34.33 65 34.66 65 35 C43.22 35 21.44 35 -1 35 C-1.020625 29.410625 -1.04125 23.82125 -1.0625 18.0625 C-1.071604 16.29656494 -1.08070801 14.53062988 -1.09008789 12.71118164 C-1.09300714 11.31917395 -1.09555567 9.92716541 -1.09765625 8.53515625 C-1.1053302 7.44164856 -1.1053302 7.44164856 -1.11315918 6.3260498 C-1.11347011 4.55029924 -1.06228515 2.77465792 -1 1 C-0.67 0.67 -0.34 0.34 0 0 Z " fill="#000D26" transform="translate(188,305)"/>
<path d="M0 0 C0.66 0 1.32 0 2 0 C3.29217984 26.68042079 4.37132164 53.28483652 4 80 C3.01 79.67 2.02 79.34 1 79 C1 78.34 1 77.68 1 77 C1.66 77 2.32 77 3 77 C2.91697632 75.63294922 2.91697632 75.63294922 2.83227539 74.23828125 C1.35368823 49.49771771 0.48244693 24.77933701 0 0 Z " fill="#47AF8C" transform="translate(435,58)"/>
<path d="M0 0 C15.84 0 31.68 0 48 0 C46 3 46 3 44.19192505 3.36749268 C43.4623056 3.36384705 42.73268616 3.36020142 41.98095703 3.35644531 C40.7392424 3.36094696 40.7392424 3.36094696 39.47244263 3.36553955 C38.12870071 3.34701935 38.12870071 3.34701935 36.7578125 3.328125 C35.8378952 3.32625183 34.91797791 3.32437866 33.97018433 3.32244873 C32.02159002 3.31571826 30.07300945 3.30178414 28.12451172 3.28125 C25.14407771 3.25019876 22.16417321 3.24028983 19.18359375 3.234375 C17.29166023 3.22520068 15.39973209 3.21482355 13.5078125 3.203125 C12.17014328 3.19675018 12.17014328 3.19675018 10.80545044 3.19024658 C9.55427933 3.17583527 9.55427933 3.17583527 8.27783203 3.16113281 C7.18101608 3.15089081 7.18101608 3.15089081 6.06204224 3.14044189 C3.93830344 2.99579796 2.04480458 2.57819978 0 2 C0 1.34 0 0.68 0 0 Z " fill="#24A275" transform="translate(76,287)"/>
<path d="M0 0 C2.33944736 0.28730055 4.6739143 0.61936779 7 1 C4.22433156 2.85044563 2.95479591 3.38501976 -0.18359375 4 C-1.43595825 4.2460498 -1.43595825 4.2460498 -2.71362305 4.49707031 C-3.61250244 4.66303711 -4.51138184 4.82900391 -5.4375 5 C-6.37182861 5.17370117 -7.30615723 5.34740234 -8.26879883 5.52636719 C-23.84120935 8.31842666 -39.19636811 9.34355722 -55 9 C-55 8.34 -55 7.68 -55 7 C-54.05253906 6.97812622 -54.05253906 6.97812622 -53.0859375 6.95581055 C-40.91209062 6.6455441 -28.84098077 6.06544487 -16.75 4.5625 C-15.74582031 4.44028076 -14.74164063 4.31806152 -13.70703125 4.19213867 C-6.29935954 3.50451941 -6.29935954 3.50451941 0 0 Z " fill="#2D9D7B" transform="translate(143,314)"/>
<path d="M0 0 C-3.36001271 1.45539253 -6.40215303 2.35920589 -10.02734375 2.8515625 C-11.45361084 3.04540527 -11.45361084 3.04540527 -12.90869141 3.24316406 C-13.90819824 3.36916992 -14.90770508 3.49517578 -15.9375 3.625 C-16.96278809 3.75616211 -17.98807617 3.88732422 -19.04443359 4.02246094 C-28.48866694 5.16784756 -37.60508717 5.87898257 -47 4 C-47 8.62 -47 13.24 -47 18 C-47.33 18 -47.66 18 -48 18 C-48 13.05 -48 8.1 -48 3 C-46.164375 2.87882812 -44.32875 2.75765625 -42.4375 2.6328125 C-24.62135428 1.43907753 -24.62135428 1.43907753 -6.90625 -0.73046875 C-4.23333489 -0.97836007 -2.51131388 -0.86788053 0 0 Z " fill="#063234" transform="translate(136,320)"/>
<path d="M0 0 C0 3 0 3 -2.6328125 5.99609375 C-3.78910833 7.15105744 -4.9535634 8.29789592 -6.125 9.4375 C-6.69476563 10.01048828 -7.26453125 10.58347656 -7.8515625 11.17382812 C-11.33110237 14.60987374 -14.87023968 17.34726412 -19 20 C-19.845625 20.86625 -20.69125 21.7325 -21.5625 22.625 C-24.08609351 25.08388599 -25.78086672 25.74375287 -29 27 C-30.06357577 27.86970879 -31.10441881 28.76771696 -32.125 29.6875 C-33.07375 30.450625 -34.0225 31.21375 -35 32 C-35.99 31.67 -36.98 31.34 -38 31 C-37.32964722 30.49569458 -37.32964722 30.49569458 -36.64575195 29.98120117 C-26.84706858 22.59299642 -17.26428492 15.04866742 -8 7 C-7.14921875 6.26136719 -6.2984375 5.52273437 -5.421875 4.76171875 C-3.60921824 3.18039755 -1.80116356 1.59438345 0 0 Z " fill="#022A2F" transform="translate(349,208)"/>
<path d="M0 0 C0.66 0.33 1.32 0.66 2 1 C-5.11512415 8.27765237 -5.11512415 8.27765237 -9.0625 11.5 C-13.3437939 15.14365438 -17.0162979 19.34195158 -20.37890625 23.84765625 C-21.625 25.5 -21.625 25.5 -24 28 C-26.8125 28.375 -26.8125 28.375 -29 28 C-23.36882386 20.92080714 -16.69635776 15.04155882 -10 9 C-9.22245361 8.29665527 -9.22245361 8.29665527 -8.42919922 7.57910156 C-5.62666711 5.04465365 -2.81711067 2.51822986 0 0 Z " fill="#4AA684" transform="translate(93,113)"/>
<path d="M0 0 C0.33 0.66 0.66 1.32 1 2 C-1.21410834 6.5102207 -2.90357886 9.09286242 -7 12 C-7.39703125 12.72316406 -7.7940625 13.44632813 -8.203125 14.19140625 C-10.54371332 17.84984755 -13.4628942 20.43725561 -16.6875 23.3125 C-17.59725586 24.13717773 -17.59725586 24.13717773 -18.52539062 24.97851562 C-20.01190771 26.32457441 -21.50527408 27.66306256 -23 29 C-23.66 28.67 -24.32 28.34 -25 28 C-24.57589844 27.5875 -24.15179688 27.175 -23.71484375 26.75 C-19.93686184 23.03014089 -16.36195399 19.20409964 -12.90234375 15.1875 C-9.96324028 11.80783277 -6.93611562 8.50827134 -3.91796875 5.19921875 C-1.87480508 2.95177481 -1.87480508 2.95177481 0 0 Z " fill="#3AAB81" transform="translate(361,145)"/>
<path d="M0 0 C-29.11218679 11.04897494 -29.11218679 11.04897494 -41 12 C-37.82289902 8.82289902 -34.74384165 7.80961461 -30.375 7.0625 C-23.58159689 5.78374177 -17.08443543 3.82719308 -10.625 1.375 C-3.72580645 -1.24193548 -3.72580645 -1.24193548 0 0 Z " fill="#D4FAEF" transform="translate(187,269)"/>
<path d="M0 0 C-1 3 -1 3 -3.375 4.1875 C-6 5 -6 5 -9 5 C-9.33 5.66 -9.66 6.32 -10 7 C-11.91772461 7.85375977 -11.91772461 7.85375977 -14.40234375 8.69140625 C-15.29244141 8.99626953 -16.18253906 9.30113281 -17.09960938 9.61523438 C-18.03611328 9.92783203 -18.97261719 10.24042969 -19.9375 10.5625 C-21.78028826 11.18779996 -23.62275238 11.81405626 -25.46484375 12.44140625 C-26.285896 12.71670166 -27.10694824 12.99199707 -27.95288086 13.27563477 C-30.0276241 13.96246355 -30.0276241 13.96246355 -32 15 C-32.66 14.34 -33.32 13.68 -34 13 C-33.42145264 12.78384033 -32.84290527 12.56768066 -32.24682617 12.3449707 C-17.87153951 7.0178755 -17.87153951 7.0178755 -3.86328125 0.8125 C-2 0 -2 0 0 0 Z " fill="#023132" transform="translate(225,290)"/>
<path d="M0 0 C5.94 0 11.88 0 18 0 C18.33 0.99 18.66 1.98 19 3 C18 4 18 4 16.15234375 4.09765625 C14.1015625 4.06510417 12.05078125 4.03255208 10 4 C10 3.34 10 2.68 10 2 C6.37 2 2.74 2 -1 2 C-0.67 1.34 -0.34 0.68 0 0 Z " fill="#081429" transform="translate(118,266)"/>
<path d="M0 0 C0.66 0 1.32 0 2 0 C2 1.32 2 2.64 2 4 C1.33355469 4.23074219 0.66710937 4.46148437 -0.01953125 4.69921875 C-6.8587998 7.11926762 -13.44038317 9.90416537 -20 13 C-20.66 12.34 -21.32 11.68 -22 11 C-21.36908447 10.70230713 -20.73816895 10.40461426 -20.08813477 10.09790039 C-17.24520648 8.7549767 -14.40383849 7.40878385 -11.5625 6.0625 C-10.56927734 5.59392578 -9.57605469 5.12535156 -8.55273438 4.64257812 C-7.60849609 4.19462891 -6.66425781 3.74667969 -5.69140625 3.28515625 C-4.81685791 2.87144775 -3.94230957 2.45773926 -3.04125977 2.03149414 C-1.05916587 1.16323059 -1.05916587 1.16323059 0 0 Z " fill="#02282E" transform="translate(251,276)"/>
<path d="M0 0 C0.66 0 1.32 0 2 0 C0.49250444 4.54067363 -1.02324469 9.07810617 -2.5703125 13.60546875 C-2.82683594 14.36150391 -3.08335938 15.11753906 -3.34765625 15.89648438 C-3.87025896 17.436718 -4.39636029 18.97576854 -4.92578125 20.51367188 C-6.32750528 24.66547885 -7.42904006 28.63424533 -8 33 C-8.33 33 -8.66 33 -9 33 C-8.68209767 25.7101708 -8.30948435 19.61896871 -5 13 C-4.20494517 10.71666519 -3.47118755 8.41965305 -2.74609375 6.11328125 C-1.98914938 3.96926604 -1.05745516 2.01052634 0 0 Z " fill="#36A67E" transform="translate(35,190)"/>
<path d="M0 0 C-0.33 0.66 -0.66 1.32 -1 2 C-3.87506421 2.02712325 -6.74986908 2.04689851 -9.625 2.0625 C-10.83736328 2.07506836 -10.83736328 2.07506836 -12.07421875 2.08789062 C-16.50341918 2.1058955 -20.63883424 1.89622662 -25 1 C-25 0.67 -25 0.34 -25 0 C-22.14619655 -0.19629336 -19.29232606 -0.38226546 -16.4375 -0.5625 C-15.63763672 -0.61857422 -14.83777344 -0.67464844 -14.01367188 -0.73242188 C-9.15845373 -1.02968013 -4.78889489 -0.86778632 0 0 Z " fill="#DFFCF5" transform="translate(99,285)"/>
<path d="M0 0 C0.66 0.33 1.32 0.66 2 1 C-10.09621993 12 -10.09621993 12 -15 12 C-15.66 13.32 -16.32 14.64 -17 16 C-17.99 15.34 -18.98 14.68 -20 14 C-19.42967041 13.61142822 -18.85934082 13.22285645 -18.27172852 12.82250977 C-15.70122449 11.07028679 -13.13184913 9.31641595 -10.5625 7.5625 C-9.66466797 6.95083984 -8.76683594 6.33917969 -7.84179688 5.70898438 C-6.98779297 5.12568359 -6.13378906 4.54238281 -5.25390625 3.94140625 C-4.46314697 3.40201416 -3.6723877 2.86262207 -2.85766602 2.30688477 C-1.07490053 1.13205702 -1.07490053 1.13205702 0 0 Z " fill="#022D2F" transform="translate(309,240)"/>
<path d="M0 0 C0.66 0.33 1.32 0.66 2 1 C0.04692885 4.46133057 -1.91334118 7.91853023 -3.875 11.375 C-4.70837891 12.85226563 -4.70837891 12.85226563 -5.55859375 14.359375 C-6.09355469 15.30039063 -6.62851562 16.24140625 -7.1796875 17.2109375 C-7.67194824 18.08024902 -8.16420898 18.94956055 -8.67138672 19.84521484 C-10 22 -10 22 -12 24 C-11.125 18.25 -11.125 18.25 -10 16 C-9.34 16 -8.68 16 -8 16 C-7.87367187 15.4225 -7.74734375 14.845 -7.6171875 14.25 C-6.19335337 9.05931357 -3.43763425 4.12516111 0 0 Z " fill="#31A47B" transform="translate(49,165)"/>
<path d="M0 0 C0.74609375 1.640625 0.74609375 1.640625 1 4 C-0.65234375 6.796875 -0.65234375 6.796875 -2.9375 9.75 C-4.06478516 11.22726563 -4.06478516 11.22726563 -5.21484375 12.734375 C-5.80394531 13.48203125 -6.39304688 14.2296875 -7 15 C-7.33 14.01 -7.66 13.02 -8 12 C-7.34 12 -6.68 12 -6 12 C-6 10.68 -6 9.36 -6 8 C-5.67 7.67 -5.34 7.34 -5 7 C-5.33 6.34 -5.66 5.68 -6 5 C-4.62308038 2.24616077 -2.63279958 1.48516899 0 0 Z " fill="#29A377" transform="translate(59,149)"/>
<path d="M0 0 C3.63 0 7.26 0 11 0 C11 0.66 11 1.32 11 2 C11.99 2.33 12.98 2.66 14 3 C9.32517708 4.49594333 4.64398011 4.54799337 0 3 C0 2.01 0 1.02 0 0 Z " fill="#1B293F" transform="translate(117,268)"/>
<path d="M0 0 C1 3 1 3 0.14453125 5.12109375 C-2.21546671 9.22513713 -4.34648941 12.88775024 -8 16 C-8.99 15.67 -9.98 15.34 -11 15 C-10.06027344 13.75283203 -10.06027344 13.75283203 -9.1015625 12.48046875 C-8.27599902 11.38284458 -7.45048054 10.28518655 -6.625 9.1875 C-6.2125 8.64029297 -5.8 8.09308594 -5.375 7.52929688 C-3.51592968 5.05553395 -1.71710028 2.57565041 0 0 Z " fill="#3AAE82" transform="translate(375,126)"/>
<path d="M0 0 C0 8.58 0 17.16 0 26 C-0.33 26 -0.66 26 -1 26 C-1 18.41 -1 10.82 -1 3 C-3.31 3.33 -5.62 3.66 -8 4 C-5.29881977 1.17603885 -4.05589853 0 0 0 Z " fill="#33AC81" transform="translate(436,59)"/>
<path d="M0 0 C0.33 0.99 0.66 1.98 1 3 C-3.85732135 8.81328353 -8.71880965 13.74015016 -15 18 C-13.40564046 13.98563044 -10.55820782 11.36531911 -7.5 8.4375 C-4.71628244 5.75088887 -2.16106778 3.24160167 0 0 Z " fill="#D9FBF2" transform="translate(372,185)"/>
<path d="M0 0 C0.99 0.495 0.99 0.495 2 1 C1.01 1.495 1.01 1.495 0 2 C0 1.34 0 0.68 0 0 Z M-3 1 C-2.34 1.99 -1.68 2.98 -1 4 C-2.65653686 5.65653686 -4.60650796 5.17106165 -6.875 5.1875 C-7.75929687 5.20167969 -8.64359375 5.21585937 -9.5546875 5.23046875 C-12 5 -12 5 -15 3 C-12.56612247 1.78306124 -10.58161154 1.68040104 -7.875 1.4375 C-6.96492187 1.35371094 -6.05484375 1.26992188 -5.1171875 1.18359375 C-4.06917969 1.09271484 -4.06917969 1.09271484 -3 1 Z " fill="#03192C" transform="translate(149,317)"/>
<path d="M0 0 C0 0.99 0 1.98 0 3 C-0.66 3 -1.32 3 -2 3 C-2.33 3.99 -2.66 4.98 -3 6 C-1.02 6.66 0.96 7.32 3 8 C2.67 8.66 2.34 9.32 2 10 C0.35153231 9.55123384 -1.29373455 9.09069512 -2.9375 8.625 C-3.85402344 8.36976562 -4.77054687 8.11453125 -5.71484375 7.8515625 C-8 7 -8 7 -9 5 C-6.03 3.35 -3.06 1.7 0 0 Z " fill="#3EAA84" transform="translate(374,92)"/>
<path d="M0 0 C0.33 0.99 0.66 1.98 1 3 C-5.02105263 9.29473684 -5.02105263 9.29473684 -9 11 C-9.66 11.66 -10.32 12.32 -11 13 C-11.66 12.34 -12.32 11.68 -13 11 C-8.73958774 7.23645964 -4.48151089 3.50118038 0 0 Z " fill="#37AB80" transform="translate(329,180)"/>
<path d="M0 0 C0.33 0 0.66 0 1 0 C1 10.89 1 21.78 1 33 C0.01 32.67 -0.98 32.34 -2 32 C-2 31.34 -2 30.68 -2 30 C-1.34 30 -0.68 30 0 30 C0 20.1 0 10.2 0 0 Z " fill="#58B293" transform="translate(438,105)"/>
<path d="M0 0 C0.66 0.33 1.32 0.66 2 1 C-5.55550438 8.72809205 -5.55550438 8.72809205 -9.25 11.75 C-11.65925097 13.72120534 -13.84315436 15.76019876 -16 18 C-15.42785605 14.4655723 -14.24916718 12.93201727 -11.62109375 10.546875 C-10.94755859 9.928125 -10.27402344 9.309375 -9.58007812 8.671875 C-8.87302734 8.03765625 -8.16597656 7.4034375 -7.4375 6.75 C-6.37112305 5.77546875 -6.37112305 5.77546875 -5.28320312 4.78125 C-3.52878978 3.17990627 -1.76769751 1.58664724 0 0 Z " fill="#75A394" transform="translate(93,113)"/>
<path d="M0 0 C2.09635849 7.37726156 -0.7950279 13.42608049 -4 20 C-4.97812873 16.94371936 -5.00835683 15.14722553 -4.00390625 12.109375 C-3.77509766 11.40039062 -3.54628906 10.69140625 -3.31054688 9.9609375 C-3.06369141 9.23132813 -2.81683594 8.50171875 -2.5625 7.75 C-2.19801758 6.63238281 -2.19801758 6.63238281 -1.82617188 5.4921875 C-1.22667019 3.65841765 -0.61455513 1.82877996 0 0 Z " fill="#41B187" transform="translate(11,219)"/>
<path d="M0 0 C0.33 0.99 0.66 1.98 1 3 C-3.75 6 -3.75 6 -6 6 C-6 6.66 -6 7.32 -6 8 C-6.639375 8.103125 -7.27875 8.20625 -7.9375 8.3125 C-8.9584375 8.6528125 -8.9584375 8.6528125 -10 9 C-10.33 9.99 -10.66 10.98 -11 12 C-12.32 11.67 -13.64 11.34 -15 11 C-13.87851562 10.18595703 -13.87851562 10.18595703 -12.734375 9.35546875 C-11.74953125 8.64003906 -10.7646875 7.92460937 -9.75 7.1875 C-8.77546875 6.47980469 -7.8009375 5.77210938 -6.796875 5.04296875 C-4.51810991 3.37845179 -2.25234178 1.69998177 0 0 Z " fill="#3DAB83" transform="translate(295,208)"/>
<path d="M0 0 C0.33 0.99 0.66 1.98 1 3 C1.99 3.33 2.98 3.66 4 4 C4 4.66 4 5.32 4 6 C4.66 6 5.32 6 6 6 C7.34919532 7.65385233 8.68133728 9.321702 10 11 C10.99 11.66 11.98 12.32 13 13 C12.67 13.66 12.34 14.32 12 15 C10.38869977 13.61240749 8.78624159 12.21454377 7.1875 10.8125 C6.29417969 10.03519531 5.40085937 9.25789063 4.48046875 8.45703125 C2.1068383 6.10582881 0.56759953 3.93208816 -1 1 C-0.67 0.67 -0.34 0.34 0 0 Z " fill="#37A87F" transform="translate(17,291)"/>
<path d="M0 0 C-1.875 4.75 -1.875 4.75 -3 7 C-4.32 6.67 -5.64 6.34 -7 6 C-6.75 4.125 -6.75 4.125 -6 2 C-3.85331506 0.61504198 -2.56128588 0 0 0 Z " fill="#37A27B" transform="translate(68,140)"/>
<path d="M0 0 C0.66 0 1.32 0 2 0 C0.58832253 5.26170694 -1.74850232 8.72171358 -5 13 C-5.66 11.68 -6.32 10.36 -7 9 C-6.360625 8.566875 -5.72125 8.13375 -5.0625 7.6875 C-2.73253997 6.08760823 -2.73253997 6.08760823 -2 3 C-1.34 3 -0.68 3 0 3 C0 2.01 0 1.02 0 0 Z " fill="#3AAA80" transform="translate(415,126)"/>
<path d="M0 0 C2.10478604 0.11409682 4.20884577 0.24165361 6.3125 0.375 C7.48425781 0.44460938 8.65601563 0.51421875 9.86328125 0.5859375 C13 1 13 1 16 3 C10.10304872 4.70701221 5.58011183 2.95193635 0 1 C0 0.67 0 0.34 0 0 Z " fill="#4AB48D" transform="translate(50,316)"/>
<path d="M0 0 C0.99 0.33 1.98 0.66 3 1 C-0.3 4.3 -3.6 7.6 -7 11 C-7.66 10.67 -8.32 10.34 -9 10 C-6.03 6.7 -3.06 3.4 0 0 Z " fill="#D7F5ED" transform="translate(85,122)"/>
<path d="M0 0 C0.33 1.32 0.66 2.64 1 4 C0.34 4 -0.32 4 -1 4 C-1.12375 4.7425 -1.2475 5.485 -1.375 6.25 C-1.95486701 8.80141485 -2.73708739 10.7267573 -4 13 C-4.66 13 -5.32 13 -6 13 C-4.58707905 8.1725201 -2.57025846 4.2837641 0 0 Z " fill="#3EAD83" transform="translate(24,192)"/>
<path d="M0 0 C-1.62170379 1.00533667 -3.24747237 2.00411907 -4.875 3 C-6.23238281 3.8353125 -6.23238281 3.8353125 -7.6171875 4.6875 C-10 6 -10 6 -12 6 C-12 5.34 -12 4.68 -12 4 C-11.34 4 -10.68 4 -10 4 C-10 3.34 -10 2.68 -10 2 C-9.01 2 -8.02 2 -7 2 C-7 1.34 -7 0.68 -7 0 C-3.98968256 -0.93423645 -3.13349732 -1.04449911 0 0 Z " fill="#D1F9EC" transform="translate(402,77)"/>
<path d="M0 0 C0 0.99 0 1.98 0 3 C-9.41002278 5.29612756 -9.41002278 5.29612756 -14 5 C-11.35493484 3.23662322 -9.40786033 2.3439149 -6.4375 1.375 C-5.65246094 1.11460937 -4.86742187 0.85421875 -4.05859375 0.5859375 C-2 0 -2 0 0 0 Z " fill="#C8F3E5" transform="translate(181,307)"/>
<path d="M0 0 C1 2 1 2 0.3125 4.375 C-1.09398311 7.18796623 -2.67557877 8.9080209 -5 11 C-5.66 10.67 -6.32 10.34 -7 10 C-3.535 5.05 -3.535 5.05 0 0 Z " fill="#D0F6ED" transform="translate(68,141)"/>
<path d="M0 0 C2.10546875 0.42578125 2.10546875 0.42578125 4 1 C3.0479279 2.00596297 2.08812654 3.00461563 1.125 4 C0.59132813 4.556875 0.05765625 5.11375 -0.4921875 5.6875 C-2 7 -2 7 -4 7 C-3.59316505 4.64035727 -3.10185661 3.14065912 -1.6875 1.1875 C-1.130625 0.795625 -0.57375 0.40375 0 0 Z " fill="#CDF1E7" transform="translate(77,124)"/>
<path d="M0 0 C0.33 0 0.66 0 1 0 C0.67 3.96 0.34 7.92 0 12 C-0.99 12.33 -1.98 12.66 -3 13 C-2.45144652 8.428721 -1.58255197 4.32564205 0 0 Z " fill="#BFF0E3" transform="translate(31,204)"/>
<path d="M0 0 C0.99 0.33 1.98 0.66 3 1 C0.69 3.64 -1.62 6.28 -4 9 C-4.33 7.68 -4.66 6.36 -5 5 C-2.5625 2.25 -2.5625 2.25 0 0 Z " fill="#D7FAF1" transform="translate(61,140)"/>
<path d="M0 0 C3.65316671 1.24976756 4.78065836 1.67098753 7 5 C6.01 5 5.02 5 4 5 C4 4.34 4 3.68 4 3 C2.02463255 3.34786708 2.02463255 3.34786708 0 4 C-0.33 4.66 -0.66 5.32 -1 6 C-1.66 6 -2.32 6 -3 6 C-1.125 1.125 -1.125 1.125 0 0 Z " fill="#CEF7EB" transform="translate(419,124)"/>
<path d="M0 0 C-2.68092691 2.68092691 -4.39167363 2.38670257 -8.125 2.625 C-9.22070312 2.69976562 -10.31640625 2.77453125 -11.4453125 2.8515625 C-12.28835937 2.90054687 -13.13140625 2.94953125 -14 3 C-9.7368213 0.15788087 -5.03577274 -2.0143091 0 0 Z " fill="#45B18A" transform="translate(175,275)"/>
<path d="M0 0 C0 0.66 0 1.32 0 2 C-8.261959 6.59225513 -8.261959 6.59225513 -13 6 C-11.59719304 3.19438607 -9.9490995 2.99319493 -7.0625 1.875 C-6.16660156 1.52179688 -5.27070313 1.16859375 -4.34765625 0.8046875 C-2 0 -2 0 0 0 Z " fill="#4AAF8B" transform="translate(211,259)"/>
<path d="M0 0 C0.66 0.33 1.32 0.66 2 1 C-0.97 5.95 -0.97 5.95 -4 11 C-5 7 -5 7 -4 4 C-3.34 4 -2.68 4 -2 4 C-1.34 2.68 -0.68 1.36 0 0 Z " fill="#D4FAEF" transform="translate(31,178)"/>
<path d="M0 0 C0.33 0.99 0.66 1.98 1 3 C-0.21484375 5.04296875 -0.21484375 5.04296875 -1.9375 7.1875 C-2.50339844 7.90292969 -3.06929687 8.61835938 -3.65234375 9.35546875 C-4.09707031 9.89816406 -4.54179688 10.44085938 -5 11 C-5.66 10.67 -6.32 10.34 -7 10 C-3.535 5.05 -3.535 5.05 0 0 Z " fill="#3DA982" transform="translate(43,164)"/>
<path d="M0 0 C1.45922693 0.11409593 2.91740598 0.24165544 4.375 0.375 C5.59316406 0.47941406 5.59316406 0.47941406 6.8359375 0.5859375 C9 1 9 1 11 3 C10.67 3.99 10.34 4.98 10 6 C10 5.34 10 4.68 10 4 C9.278125 3.87625 8.55625 3.7525 7.8125 3.625 C5.04278106 3.0095069 2.6029646 2.11555626 0 1 C0 0.67 0 0.34 0 0 Z " fill="#43AE84" transform="translate(377,102)"/>
<path d="M0 0 C-6.75 4 -6.75 4 -9 4 C-8.67 2.68 -8.34 1.36 -8 0 C-4.94736336 -0.98120464 -3.05263664 -0.98120464 0 0 Z " fill="#42B084" transform="translate(266,269)"/>
<path d="M0 0 C0.66 0 1.32 0 2 0 C0.34832443 3.5786304 -1.78286492 6.74820188 -4 10 C-4.33 8.68 -4.66 7.36 -5 6 C-4.34 6 -3.68 6 -3 6 C-3 5.01 -3 4.02 -3 3 C-2.34 3 -1.68 3 -1 3 C-0.67 2.01 -0.34 1.02 0 0 Z " fill="#D3F9EF" transform="translate(38,168)"/>
<path d="M0 0 C0.66 0.33 1.32 0.66 2 1 C-0.31 3.97 -2.62 6.94 -5 10 C-5.33 9.01 -5.66 8.02 -6 7 C-5.34 6.01 -4.68 5.02 -4 4 C-3.34 4 -2.68 4 -2 4 C-2 3.34 -2 2.68 -2 2 C-1.34 2 -0.68 2 0 2 C0 1.34 0 0.68 0 0 Z " fill="#CCF6E9" transform="translate(363,140)"/>
<path d="M0 0 C0.33 0.99 0.66 1.98 1 3 C-1.97 5.475 -1.97 5.475 -5 8 C-4.64950425 4.75791433 -4.43778819 3.38472296 -1.9375 1.1875 C-1.298125 0.795625 -0.65875 0.40375 0 0 Z " fill="#459A7B" transform="translate(76,129)"/>
<path d="M0 0 C3.625 0.375 3.625 0.375 7 1 C3.83759418 3.10827055 2.49342531 3.33817465 -1.1875 3.625 C-2.53908203 3.73714844 -2.53908203 3.73714844 -3.91796875 3.8515625 C-4.94857422 3.92503906 -4.94857422 3.92503906 -6 4 C-5.38125 3.71125 -4.7625 3.4225 -4.125 3.125 C-1.86674235 2.06279958 -1.86674235 2.06279958 0 0 Z " fill="#33A884" transform="translate(143,314)"/>
<path d="M0 0 C0.33 0.99 0.66 1.98 1 3 C-1.97 5.475 -1.97 5.475 -5 8 C-5.66 7.67 -6.32 7.34 -7 7 C-4.69 4.69 -2.38 2.38 0 0 Z " fill="#CEF5EB" transform="translate(380,177)"/>
<path d="M0 0 C4.95 0.99 4.95 0.99 10 2 C10 2.33 10 2.66 10 3 C3.375 4.125 3.375 4.125 0 3 C0 2.01 0 1.02 0 0 Z " fill="#44B38B" transform="translate(64,283)"/>
<path d="M0 0 C1.52519276 0.08937803 3.04681929 0.24537146 4.5625 0.4375 C5.80193359 0.59025391 5.80193359 0.59025391 7.06640625 0.74609375 C7.70449219 0.82988281 8.34257812 0.91367187 9 1 C8.67 1.66 8.34 2.32 8 3 C4.625 3.125 4.625 3.125 1 3 C0.34 2.34 -0.32 1.68 -1 1 C-0.67 0.67 -0.34 0.34 0 0 Z " fill="#18A571" transform="translate(181,271)"/>
<path d="M0 0 C0.66 0 1.32 0 2 0 C2 2.64 2 5.28 2 8 C1.01 8.495 1.01 8.495 0 9 C-1.10844919 5.67465243 -0.84454356 3.37817425 0 0 Z " fill="#0FA16A" transform="translate(12,218)"/>
<path d="M0 0 C0.99 0 1.98 0 3 0 C1.55746343 3.36591866 -0.33264727 5.51047079 -3 8 C-2.67 6.35 -2.34 4.7 -2 3 C-1.34 3 -0.68 3 0 3 C0 2.01 0 1.02 0 0 Z " fill="#35AC7F" transform="translate(384,168)"/>
<path d="M0 0 C0.66 0 1.32 0 2 0 C2 2.31 2 4.62 2 7 C1.01 7 0.02 7 -1 7 C-0.67 4.69 -0.34 2.38 0 0 Z " fill="#10A36A" transform="translate(28,187)"/>
</svg>
